<svg xmlns="http://www.w3.org/2000/svg" viewBox="0 0 395.6 421.98"><defs><style>.cls-1{fill:#fff;}.cls-1,.cls-2,.cls-3,.cls-4,.cls-5,.cls-6,.cls-7,.cls-8{fill-rule:evenodd;}.cls-2{fill:#ffcb05;}.cls-3{fill:#939598;}.cls-4{fill:#fbad18;}.cls-5,.cls-9{fill:#231f20;}.cls-6{fill:#f15f22;}.cls-7{fill:#6d6e71;}.cls-8{fill:#f58220;}.cls-9{font-size:36px;font-family:HoboStd, Hobo Std;}</style></defs><title>IndieNSArtboard 2</title><g id="Layer_1" data-name="Layer 1"><polygon class="cls-1" points="-88.14 -87.66 478.79 -87.66 478.79 479.27 -88.14 479.27 -88.14 -87.66 -88.14 -87.66"/><path class="cls-2" d="M195.32,273.65a99.16,99.16,0,1,1,99.16-99.16,99.35,99.35,0,0,1-99.16,99.16Z"/><path class="cls-3" d="M195.32,39.86C269.48,39.86,330,100.34,330,174.49H311.46c0-64-52.17-116.14-116.14-116.14S79.19,110.52,79.19,174.49H60.7c0-74.15,60.48-134.63,134.63-134.63Z"/><path class="cls-4" d="M185.66,198.85c3.8,0,6.9,2.09,6.9,4.66s-3.1,4.66-6.9,4.66-6.9-2.09-6.9-4.66,3.1-4.66,6.9-4.66Zm19.33,0c3.8,0,6.9,2.09,6.9,4.66s-3.1,4.66-6.9,4.66-6.9-2.09-6.9-4.66,3.1-4.66,6.9-4.66Z"/><path class="cls-5" d="M195.32,122.38a44,44,0,0,1-29.13,12.18V117.85c-9.49,11.48-20.8,17.15-40.77,18.85l10.31-20.63c-11.82,9.57-22.92,15.78-31.21,18.62a99.11,99.11,0,0,1,181.58,0c-8.28-2.84-19.38-9-31.21-18.62l10.31,20.63c-20-1.7-31.28-7.37-40.77-18.85v16.71a44,44,0,0,1-29.13-12.18Z"/><path class="cls-4" d="M143.79,210.81a12.55,12.55,0,1,1-12.55,12.55,12.57,12.57,0,0,1,12.55-12.55Z"/><path class="cls-4" d="M246.86,210.81a12.55,12.55,0,1,1-12.54,12.55,12.57,12.57,0,0,1,12.54-12.55Z"/><path class="cls-6" d="M195.32,245.26a70.6,70.6,0,0,1-52-22.83c14.91,5.8,33.28,10.77,52,10.77s37.07-5,52-10.77a70.61,70.61,0,0,1-52,22.83Z"/><polygon class="cls-7" points="79.19 124.68 60.7 124.68 60.7 224.3 79.19 224.3 79.19 124.68 79.19 124.68"/><polygon class="cls-3" points="79.19 124.68 60.7 124.68 60.7 208.04 79.19 208.04 79.19 124.68 79.19 124.68"/><path class="cls-6" d="M57.72,133.95h3V215h-3a25.41,25.41,0,0,1-25.34-25.34v-30.4a25.41,25.41,0,0,1,25.34-25.34Z"/><path class="cls-8" d="M57.72,133.95h3v64.89h-3a25.41,25.41,0,0,1-25.34-25.34V159.29a25.41,25.41,0,0,1,25.34-25.34Z"/><polygon class="cls-6" points="88.47 142.57 302.19 142.57 302.19 162.19 88.47 162.19 88.47 142.57 88.47 142.57"/><path class="cls-6" d="M96.13,173.68V142.57h90.29v31.11a27.21,27.21,0,0,1-27.13,27.13h-36a27.21,27.21,0,0,1-27.13-27.13Z"/><path class="cls-7" d="M111.34,173.51V156.16h63.12l0,18.22a13.63,13.63,0,0,1-13.7,12.84l-36.55,0a13.63,13.63,0,0,1-12.85-13.7Z"/><polygon class="cls-5" points="111.34 170.28 111.34 156.16 174.46 156.16 174.44 170.28 111.34 170.28 111.34 170.28"/><path class="cls-6" d="M204.23,173.68V142.57h90.29v31.11a27.21,27.21,0,0,1-27.13,27.13h-36a27.21,27.21,0,0,1-27.13-27.13Z"/><path class="cls-7" d="M216.19,173.51V156.16h63.12l0,18.22a13.63,13.63,0,0,1-13.7,12.84l-36.55,0a13.63,13.63,0,0,1-12.85-13.7Z"/><polygon class="cls-5" points="216.19 170.28 216.19 156.16 279.31 156.16 279.29 170.28 216.19 170.28 216.19 170.28"/><polygon class="cls-7" points="311.46 124.68 329.95 124.68 329.95 224.3 311.46 224.3 311.46 124.68 311.46 124.68"/><polygon class="cls-3" points="311.46 124.68 329.95 124.68 329.95 208.04 311.46 208.04 311.46 124.68 311.46 124.68"/><path class="cls-6" d="M332.93,133.95h-3V215h3a25.41,25.41,0,0,0,25.34-25.34v-30.4a25.41,25.41,0,0,0-25.34-25.34Z"/><path class="cls-8" d="M332.93,133.95h-3v64.89h3a25.41,25.41,0,0,0,25.34-25.34V159.29a25.41,25.41,0,0,0-25.34-25.34Z"/></g><g id="indielogo_name" data-name="indielogo name"><text class="cls-9" transform="translate(49.19 327)">INDIENICESOUND</text></g></svg>